<?xml version="1.0" encoding="utf-8"?>
<!-- Generator: Adobe Illustrator 18.1.1, SVG Export Plug-In . SVG Version: 6.00 Build 0)  -->
<svg version="1.1" id="Layer_1" xmlns="http://www.w3.org/2000/svg" xmlns:xlink="http://www.w3.org/1999/xlink" x="0px" y="0px"
	 viewBox="-363.9 -296 1926.6 996" enable-background="new -363.9 -296 1926.6 996" xml:space="preserve">
<g>
	<linearGradient id="SVGID_1_" gradientUnits="userSpaceOnUse" x1="600" y1="-296.0331" x2="600" y2="700">
		<stop  offset="0" style="stop-color:#FFFFFF"/>
		<stop  offset="1" style="stop-color:#000000"/>
	</linearGradient>
	<rect x="-363.9" y="-296" opacity="0.4" fill="url(#SVGID_1_)" width="1927.8" height="996"/>
	<g opacity="0.4">
		<g id="polygon51_152_">
			<polygon fill="#888888" points="1231.9,119.4 1185.2,172.3 1305.9,237.6 			"/>
		</g>
		<g id="polygon25_122_">
			<polygon fill="#888888" points="1233.9,-3.5 1378.8,17 1320,-68.6 			"/>
		</g>
		<g id="polygon29_122_">
			<polygon fill="#CCC9CB" points="1378.8,17 1283.7,108.2 1233.9,-3.5 			"/>
		</g>
		<g id="polygon43_120_">
			<polygon fill="#888888" points="1263.3,112.1 1378.8,17 1308.1,161.7 			"/>
		</g>
		<g id="polygon49_160_">
			<polygon fill="#A49FA4" points="1090.3,164.9 1308.1,161.7 1293.6,86.8 			"/>
		</g>
		<g id="polygon51_150_">
			<polygon fill="#888888" points="1079.9,147.7 1103,230.6 1297.7,144.5 			"/>
		</g>
		<g id="polygon11_170_">
			<polygon fill="#888888" points="1035.3,128 1147.1,42.1 1137.7,196.2 			"/>
		</g>
		<g id="polygon5_78_">
			<polygon fill="#707071" points="1099.8,-13.7 1127.5,113.5 1134,-29.3 			"/>
		</g>
		<g id="polygon7_124_">
			<polygon fill="#A49FA4" points="961.1,168.3 1041.8,199.2 983.7,257.3 			"/>
		</g>
		<g id="polygon9_124_">
			<polygon fill="#707071" points="961.1,168.3 1041.8,199.2 1017.1,124.8 			"/>
		</g>
		<g id="polygon11_168_">
			<polygon fill="#A49FA4" points="1017.1,124.8 1127.5,113.5 1041.8,199.2 			"/>
		</g>
		<g id="polyline13_114_">
			<polyline fill="#CCC9CB" points="1085.9,49.8 1127.5,113.5 1017.1,124.8 			"/>
		</g>
		<g id="polygon15_178_">
			<polygon fill="#A49FA4" points="967.8,81 1062.5,-1.3 1083.4,108.1 			"/>
		</g>
		<g id="polygon17_124_">
			<polygon fill="#CCC9CB" points="1083.4,108.1 989.1,146.5 967.8,81 			"/>
		</g>
		<g id="polygon19_124_">
			<polygon fill="#707071" points="967.8,81 989.1,146.5 918.1,130.8 			"/>
		</g>
		<g id="polygon21_132_">
			<polygon fill="#A49FA4" points="1080,49.4 1127.5,113.5 1106.3,-1.7 			"/>
		</g>
		<g id="polygon23_114_">
			<polygon fill="#707071" points="961.1,168.3 983.7,257.3 865.1,227.1 			"/>
		</g>
		<g id="polygon25_116_">
			<polygon fill="#A49FA4" points="918.1,130.8 952.4,220.4 989.1,146.5 			"/>
		</g>
		<g id="polygon27_124_">
			<polygon fill="#707071" points="1083.4,108.1 1105.6,-13.4 1059.4,-4.4 			"/>
		</g>
		<g id="polygon29_116_">
			<polygon fill="#888888" points="952.4,220.4 861.3,212.3 918.1,130.8 			"/>
		</g>
		<g id="polygon31_134_">
			<polygon fill="#A49FA4" points="936.2,-11.4 1084.5,26.3 983,90.7 			"/>
		</g>
		<g id="polygon33_126_">
			<polygon fill="#CCC9CB" points="983,90.7 860.6,45.7 936.2,-11.4 			"/>
		</g>
		<g id="polygon35_134_">
			<polygon fill="#A49FA4" points="860.6,45.7 913.5,153.9 983,90.7 			"/>
		</g>
		<g id="polygon3_94_">
			<polygon fill="#888888" points="842.2,113.6 990.7,7.3 992.9,55.3 			"/>
		</g>
		<g id="polygon23_112_">
			<polygon fill="#CCC9CB" points="857.6,-25.2 990.7,7.3 842.2,113.6 			"/>
		</g>
		<g id="polygon49_150_">
			<polygon fill="#888888" points="1111.3,11.3 1204.1,-37.2 1159.9,-81.5 			"/>
		</g>
		<g id="polygon51_140_">
			<polygon fill="#CCC9CB" points="1098.1,2.6 1150.2,50.1 1190.9,-45.9 			"/>
		</g>
		<g id="polygon51_138_">
			<polygon fill="#888888" points="1165,211.6 1142,128.7 947.2,214.9 			"/>
		</g>
		<g id="polygon11_162_">
			<polygon fill="#888888" points="1209.6,231.3 1097.9,317.2 1107.2,163.1 			"/>
		</g>
		<g id="polygon3_90_">
			<polygon fill="#707071" points="1379.8,132.2 1261.2,102 1292,77.5 			"/>
		</g>
		<g id="polygon7_118_">
			<polygon fill="#A49FA4" points="1283.8,191 1203.1,160.1 1261.2,102 			"/>
		</g>
		<g id="polygon9_118_">
			<polygon fill="#707071" points="1283.8,191 1203.1,160.1 1227.9,234.6 			"/>
		</g>
		<g id="polygon11_160_">
			<polygon fill="#A49FA4" points="1227.9,234.6 1117.4,245.8 1203.1,160.1 			"/>
		</g>
	</g>
	<g>
		<defs>
			<rect id="SVGID_2_" x="-363.9" y="-296" width="1927.8" height="996"/>
		</defs>
		<clipPath id="SVGID_3_">
			<use xlink:href="#SVGID_2_"  overflow="visible"/>
		</clipPath>
		<g clip-path="url(#SVGID_3_)">
			<g opacity="0.6">
				<g opacity="0.4">
					<g id="polygon5_1_" opacity="0.5">
						<polygon fill="#4D4849" points="1605.8,666 1413.4,702.2 1629.4,702.2 						"/>
					</g>
					<g id="polygon11_1_" opacity="0.5">
						<polygon fill="#707071" points="1474.7,575.9 1413.4,702.2 1413.4,587.5 						"/>
					</g>
					<g id="polyline13_1_" opacity="0.5">
						<polyline fill="#888888" points="1548.9,645.5 1413.4,702.2 1474.7,575.9 						"/>
					</g>
					<g id="polygon15_1_" opacity="0.5">
						<polygon fill="#888888" points="1506.2,539 1590.1,632 1498,635.6 						"/>
					</g>
					<g id="polygon17_1_" opacity="0.5">
						<polygon fill="#A49FA4" points="1498,635.6 1452.1,548.8 1506.2,539 						"/>
					</g>
					<g id="polygon21_1_" opacity="0.5">
						<polygon fill="#707071" points="1548.4,640.5 1413.4,702.2 1596.2,670.1 						"/>
					</g>
					<g id="polygon27_1_" opacity="0.5">
						<polygon fill="#A49FA4" points="1498,635.6 1606.3,671.1 1592.4,629.7 						"/>
					</g>
					<g id="polygon31_1_" opacity="0.5">
						<polygon fill="#A49FA4" points="1582.2,523.8 1569.1,647.5 1499.8,550.9 						"/>
					</g>
				</g>
				<g opacity="0.4">
					<g id="polygon3_108_">
						<polygon fill="#707071" points="-185.2,292.7 -66.6,322.8 -97.3,347.4 						"/>
					</g>
					<g id="polygon7_138_">
						<polygon fill="#A49FA4" points="-89.2,233.9 -8.5,264.8 -66.6,322.8 						"/>
					</g>
					<g id="polygon23_128_">
						<polygon fill="#707071" points="-89.2,233.9 -66.6,322.8 -185.2,292.7 						"/>
					</g>
					<g id="polygon43_128_">
						<polygon fill="#707071" points="-198.3,268.6 -97.9,286 -216,317.2 						"/>
					</g>
					<g id="polygon49_168_">
						<polygon fill="#A49FA4" points="-290,199 -216,317.2 -171.7,273 						"/>
					</g>
					<g id="polygon51_158_">
						<polygon fill="#888888" points="-282.1,185 -328.8,237.8 -208.1,303.2 						"/>
					</g>
					<g id="polygon11_188_">
						<polygon fill="#888888" points="-304.4,296.8 -416.1,382.8 -406.8,228.6 						"/>
					</g>
					<g id="polygon5_88_">
						<polygon fill="#707071" points="-368.9,438.6 -396.6,311.3 -403,454.2 						"/>
					</g>
					<g id="polygon9_138_">
						<polygon fill="#707071" points="-230.2,256.5 -310.9,225.6 -286.2,300.1 						"/>
					</g>
					<g id="polygon11_186_">
						<polygon fill="#A49FA4" points="-286.2,300.1 -396.6,311.3 -310.9,225.6 						"/>
					</g>
					<g id="polyline13_128_">
						<polyline fill="#CCC9CB" points="-354.9,375.1 -396.6,311.3 -286.2,300.1 						"/>
					</g>
					<g id="polygon15_196_">
						<polygon fill="#A49FA4" points="-236.9,343.8 -331.6,426.1 -352.4,316.8 						"/>
					</g>
					<g id="polygon17_138_">
						<polygon fill="#CCC9CB" points="-352.4,316.8 -258.2,278.3 -236.9,343.8 						"/>
					</g>
					<g id="polygon19_138_">
						<polygon fill="#707071" points="-236.9,343.8 -258.2,278.3 -187.1,294.1 						"/>
					</g>
					<g id="polygon21_148_">
						<polygon fill="#A49FA4" points="-349.1,375.4 -396.6,311.3 -375.4,426.5 						"/>
					</g>
					<g id="polygon27_138_">
						<polygon fill="#707071" points="-352.4,316.8 -374.7,438.3 -328.5,429.2 						"/>
					</g>
					<g id="polygon31_148_">
						<polygon fill="#A49FA4" points="-205.3,436.3 -353.6,398.5 -252.1,334.2 						"/>
					</g>
					<g id="polygon33_138_">
						<polygon fill="#CCC9CB" points="-252.1,334.2 -129.6,379.2 -205.3,436.3 						"/>
					</g>
					<g id="polygon35_148_">
						<polygon fill="#A49FA4" points="-129.6,379.2 -182.6,270.9 -252.1,334.2 						"/>
					</g>
					<g id="polygon37_148_">
						<polygon fill="#CCC9CB" points="-182.6,270.9 -147.7,217.4 -129.6,379.2 						"/>
					</g>
					<g id="polygon39_158_">
						<polygon fill="#A49FA4" points="-129.6,379.2 -29.4,291.4 -147.7,217.4 						"/>
					</g>
					<g id="polygon41_148_">
						<polygon fill="#CCC9CB" points="-205.3,436.3 -301.7,538.9 -353.6,398.5 						"/>
					</g>
					<g id="polyline45_88_">
						<polyline fill="#888888" points="-301.7,538.9 -420.3,459 -353.6,398.5 						"/>
					</g>
					<g id="polygon51_156_">
						<polygon fill="#888888" points="-37.3,305.4 9.4,252.6 -111.3,187.2 						"/>
					</g>
					<g id="polygon3_106_">
						<polygon fill="#888888" points="-111.2,311.3 -259.8,417.6 -262,369.5 						"/>
					</g>
					<g id="polygon7_136_">
						<polygon fill="#A49FA4" points="-126.7,450.1 -284.1,521 -259.8,417.6 						"/>
					</g>
					<g id="polygon9_136_">
						<polygon fill="#CCC9CB" points="-126.7,450.1 -284.1,521 -124,536.9 						"/>
					</g>
					<g id="polygon11_184_">
						<polygon fill="#707071" points="-138.7,535.5 -154.7,858.1 -284.1,521 						"/>
					</g>
					<g id="polyline13_126_">
						<polyline fill="#888888" points="-93.7,657.2 -212.8,660.8 -124,536.9 						"/>
					</g>
					<g id="polygon15_194_">
						<polygon fill="#888888" points="-23,512.6 -7.7,664.8 -164.8,617.6 						"/>
					</g>
					<g id="polygon17_136_">
						<polygon fill="#CCC9CB" points="-164.8,617.6 -125.3,493.5 -23,512.6 						"/>
					</g>
					<g id="polygon19_136_">
						<polygon fill="#A49FA4" points="-23,512.6 -125.3,493.5 -39.3,428.4 						"/>
					</g>
					<g id="polygon21_146_">
						<polygon fill="#888888" points="-87.8,651.2 -212.8,660.8 -3.4,790.6 						"/>
					</g>
					<g id="polygon23_126_">
						<polygon fill="#CCC9CB" points="-126.7,450.1 -259.8,417.6 -111.2,311.3 						"/>
					</g>
					<g id="polygon25_128_">
						<polygon fill="#888888" points="-39.3,428.4 -184.2,407.8 -125.3,493.5 						"/>
					</g>
					<g id="polygon27_136_">
						<polygon fill="#A49FA4" points="-164.8,617.6 -32.6,718.2 -0.9,663.5 						"/>
					</g>
					<g id="polygon29_128_">
						<polygon fill="#CCC9CB" points="-184.2,407.8 -89,316.7 -39.3,428.4 						"/>
					</g>
					<g id="polygon31_146_">
						<polygon fill="#A49FA4" points="182.3,604.9 -62.9,670.7 -49.3,522.5 						"/>
					</g>
					<g id="polygon33_136_">
						<polygon fill="#CCC9CB" points="-49.3,522.5 245.4,541.8 182.3,604.9 						"/>
					</g>
					<g id="polygon35_146_">
						<polygon fill="#A49FA4" points="245.4,541.8 -64.2,408.9 -49.3,522.5 						"/>
					</g>
					<g id="polygon37_146_">
						<polygon fill="#CCC9CB" points="-64.2,408.9 -99,338 245.4,541.8 						"/>
					</g>
					<g id="polygon39_156_">
						<polygon fill="#888888" points="245.4,541.8 104.3,259.9 -99,338 						"/>
					</g>
					<g id="polygon43_126_">
						<polygon fill="#888888" points="-68.7,312.8 -184.2,407.8 -113.5,263.2 						"/>
					</g>
					<g id="polygon49_166_">
						<polygon fill="#A49FA4" points="104.3,259.9 -113.5,263.2 -99,338 						"/>
					</g>
					<g id="polygon5_86_">
						<polygon fill="#4D4849" points="-207.8,727.5 -400.2,763.7 -184.2,763.7 						"/>
					</g>
					<g id="polygon7_134_">
						<polygon fill="#707071" points="-384.1,583.1 -400.2,649 -458.3,591 						"/>
					</g>
					<g id="polygon9_134_">
						<polygon fill="#888888" points="-384.1,583.1 -400.2,649 -338.9,637.5 						"/>
					</g>
					<g id="polygon11_182_">
						<polygon fill="#707071" points="-338.9,637.5 -400.2,763.7 -400.2,649 						"/>
					</g>
					<g id="polyline13_124_">
						<polyline fill="#888888" points="-264.7,707.1 -400.2,763.7 -338.9,637.5 						"/>
					</g>
					<g id="polygon15_192_">
						<polygon fill="#888888" points="-307.4,600.5 -223.5,693.5 -315.6,697.2 						"/>
					</g>
					<g id="polygon17_134_">
						<polygon fill="#A49FA4" points="-315.6,697.2 -361.5,610.3 -307.4,600.5 						"/>
					</g>
					<g id="polygon19_134_">
						<polygon fill="#CCC9CB" points="-307.4,600.5 -361.5,610.3 -357.2,550.7 						"/>
					</g>
					<g id="polygon21_144_">
						<polygon fill="#707071" points="-265.2,702 -400.2,763.7 -217.4,731.6 						"/>
					</g>
					<g id="polygon23_124_">
						<polygon fill="#888888" points="-384.1,583.1 -458.3,591 -447.8,492 						"/>
					</g>
					<g id="polygon25_126_">
						<polygon fill="#A49FA4" points="-357.2,550.7 -430.4,568.7 -361.5,610.3 						"/>
					</g>
					<g id="polygon27_134_">
						<polygon fill="#A49FA4" points="-315.6,697.2 -207.3,732.6 -221.2,691.3 						"/>
					</g>
					<g id="polygon29_126_">
						<polygon fill="#CCC9CB" points="-430.4,568.7 -435.4,490.7 -357.2,550.7 						"/>
					</g>
					<g id="polygon31_144_">
						<polygon fill="#A49FA4" points="-231.4,585.3 -244.5,709 -313.8,612.4 						"/>
					</g>
					<g id="polygon33_134_">
						<polygon fill="#CCC9CB" points="-313.8,612.4 -291,512.1 -231.4,585.3 						"/>
					</g>
					<g id="polygon35_144_">
						<polygon fill="#A49FA4" points="-291,512.1 -377.9,543.7 -313.8,612.4 						"/>
					</g>
					<g id="polygon37_144_">
						<polygon fill="#CCC9CB" points="-377.9,543.7 -428.9,506.3 -291,512.1 						"/>
					</g>
					<g id="polygon39_154_">
						<polygon fill="#A49FA4" points="-284.1,512.1 -380.4,413.6 -428.9,506.3 						"/>
					</g>
					<g id="polygon41_144_">
						<polygon fill="#CCC9CB" points="-231.4,585.3 -129.6,682.6 -244.5,709 						"/>
					</g>
					<g id="polyline45_86_">
						<polyline fill="#A49FA4" points="-129.6,682.6 -154.7,858.1 -244.5,709 						"/>
					</g>
					<g id="polygon47_106_">
						<polygon fill="#707071" points="-129.6,682.6 -55.5,752.2 -154.7,858.1 						"/>
					</g>
					<g id="polygon49_164_">
						<polygon fill="#888888" points="-380.4,413.6 -473.2,462.1 -428.9,506.3 						"/>
					</g>
					<g id="polygon51_154_">
						<polygon fill="#CCC9CB" points="-367.2,422.2 -419.2,374.7 -460,470.8 						"/>
					</g>
					<g id="polygon3_96_">
						<polygon fill="#707071" points="-24.7,292.7 94,322.8 63.2,347.4 						"/>
					</g>
					<g id="polygon37_134_">
						<polygon fill="#CCC9CB" points="23.8,219.5 -11.2,273 -29.2,111.2 						"/>
					</g>
					<g id="polygon39_144_">
						<polygon fill="#A49FA4" points="-29.2,111.2 -129.4,199 -11.2,273 						"/>
					</g>
					<g id="polygon43_114_">
						<polygon fill="#707071" points="-37.7,268.6 62.6,286 -55.4,317.2 						"/>
					</g>
					<g id="polygon49_154_">
						<polygon fill="#A49FA4" points="-129.4,199 -55.4,317.2 -11.2,273 						"/>
					</g>
					<g id="polygon51_144_">
						<polygon fill="#888888" points="-121.6,185 -168.2,237.8 -47.6,303.2 						"/>
					</g>
					<g id="polyline13_112_">
						<polyline fill="#888888" points="-400.9,-14.9 -281.8,-18.5 -370.6,105.4 						"/>
					</g>
					<g id="polygon15_176_">
						<polygon fill="#CCC9CB" points="-331.7,158.7 -347,6.4 -189.9,53.7 						"/>
					</g>
					<g id="polygon17_122_">
						<polygon fill="#CCC9CB" points="6,-127.2 -33.5,-3.1 -135.8,-22.2 						"/>
					</g>
					<g id="polygon19_122_">
						<polygon fill="#A49FA4" points="-135.8,-22.2 -33.5,-3.1 -119.5,62 						"/>
					</g>
					<g id="polygon25_114_">
						<polygon fill="#888888" points="-119.5,62 25.3,82.6 -33.5,-3.1 						"/>
					</g>
					<g id="polygon29_114_">
						<polygon fill="#CCC9CB" points="25.3,82.6 -69.8,173.7 -119.5,62 						"/>
					</g>
					<g id="polygon43_112_">
						<polygon fill="#888888" points="-90.2,177.6 25.3,82.6 -45.4,227.2 						"/>
					</g>
					<g id="polygon49_152_">
						<polygon fill="#A49FA4" points="-263.2,230.5 -45.4,227.2 -59.8,152.4 						"/>
					</g>
					<g id="polygon51_142_">
						<polygon fill="#888888" points="-273.5,213.3 -250.5,296.1 -55.7,210 						"/>
					</g>
					<g id="polygon31_128_">
						<polygon fill="#A49FA4" points="342.9,604.9 97.6,670.7 111.3,522.5 						"/>
					</g>
					<g id="polygon33_120_">
						<polygon fill="#CCC9CB" points="111.3,522.5 406,541.8 342.9,604.9 						"/>
					</g>
					<g id="polygon35_128_">
						<polygon fill="#A49FA4" points="406,541.8 96.4,408.9 111.3,522.5 						"/>
					</g>
					<g id="polygon37_128_">
						<polygon fill="#CCC9CB" points="96.4,408.9 61.5,338 406,541.8 						"/>
					</g>
					<g id="polygon39_138_">
						<polygon fill="#888888" points="406,541.8 264.9,259.9 61.5,338 						"/>
					</g>
					<g id="polygon49_148_">
						<polygon fill="#A49FA4" points="264.9,259.9 47.1,263.2 61.5,338 						"/>
					</g>
					<g id="polygon5_74_">
						<polygon fill="#707071" points="255.4,438.6 227.7,311.3 221.2,454.2 						"/>
					</g>
					<g id="polyline13_108_">
						<polyline fill="#CCC9CB" points="269.3,375.1 227.7,311.3 338.1,300.1 						"/>
					</g>
					<g id="polygon15_168_">
						<polygon fill="#A49FA4" points="387.4,343.8 292.7,426.1 271.8,316.8 						"/>
					</g>
					<g id="polygon17_118_">
						<polygon fill="#CCC9CB" points="271.8,316.8 366.1,278.3 387.4,343.8 						"/>
					</g>
					<g id="polygon21_126_">
						<polygon fill="#A49FA4" points="275.2,375.4 227.7,311.3 248.9,426.5 						"/>
					</g>
					<g id="polygon27_118_">
						<polygon fill="#707071" points="271.8,316.8 249.5,438.3 295.8,429.2 						"/>
					</g>
					<g id="polygon31_126_">
						<polygon fill="#A49FA4" points="418.9,436.3 270.6,398.5 372.2,334.2 						"/>
					</g>
					<g id="polygon41_126_">
						<polygon fill="#CCC9CB" points="418.9,436.3 322.5,538.9 270.6,398.5 						"/>
					</g>
					<g id="polyline45_74_">
						<polyline fill="#888888" points="322.5,538.9 204,459 270.6,398.5 						"/>
					</g>
					<g id="polygon7_114_">
						<polygon fill="#707071" points="240.2,583.1 224,649 166,591 						"/>
					</g>
					<g id="polygon9_114_">
						<polygon fill="#888888" points="240.2,583.1 224,649 285.4,637.5 						"/>
					</g>
					<g id="polygon15_164_">
						<polygon fill="#888888" points="316.8,600.5 400.7,693.5 308.6,697.2 						"/>
					</g>
					<g id="polygon17_114_">
						<polygon fill="#A49FA4" points="308.6,697.2 262.8,610.3 316.8,600.5 						"/>
					</g>
					<g id="polygon19_114_">
						<polygon fill="#CCC9CB" points="316.8,600.5 262.8,610.3 267.1,550.7 						"/>
					</g>
					<g id="polygon23_104_">
						<polygon fill="#888888" points="240.2,583.1 166,591 176.4,492 						"/>
					</g>
					<g id="polygon25_106_">
						<polygon fill="#A49FA4" points="267.1,550.7 193.8,568.7 262.8,610.3 						"/>
					</g>
					<g id="polygon27_114_">
						<polygon fill="#A49FA4" points="308.6,697.2 417,732.6 403,691.3 						"/>
					</g>
					<g id="polygon29_106_">
						<polygon fill="#CCC9CB" points="193.8,568.7 188.8,490.7 267.1,550.7 						"/>
					</g>
					<g id="polygon31_122_">
						<polygon fill="#A49FA4" points="392.8,585.3 379.7,709 310.5,612.4 						"/>
					</g>
					<g id="polygon33_114_">
						<polygon fill="#CCC9CB" points="310.5,612.4 333.3,512.1 392.8,585.3 						"/>
					</g>
					<g id="polygon35_122_">
						<polygon fill="#A49FA4" points="333.3,512.1 246.4,543.7 310.5,612.4 						"/>
					</g>
					<g id="polygon37_122_">
						<polygon fill="#CCC9CB" points="246.4,543.7 195.3,506.3 333.3,512.1 						"/>
					</g>
					<g id="polygon39_132_">
						<polygon fill="#A49FA4" points="340.2,512.1 243.9,413.6 195.3,506.3 						"/>
					</g>
					<g id="polygon43_104_">
						<polygon fill="#A49FA4" points="195.6,483.9 193.8,568.7 151.1,462.1 						"/>
					</g>
					<g id="polygon49_136_">
						<polygon fill="#888888" points="243.9,413.6 151.1,462.1 195.3,506.3 						"/>
					</g>
					<g id="polygon51_128_">
						<polygon fill="#CCC9CB" points="257.1,422.2 205,374.7 164.3,470.8 						"/>
					</g>
				</g>
			</g>
			<g id="polygon43_124_">
				<polygon fill="#A49FA4" points="602.8,674.9 687.6,676.7 581,719.4 				"/>
			</g>
		</g>
	</g>
</g>
</svg>
