<?xml version="1.0" encoding="utf-8"?>
<!-- Generator: Adobe Illustrator 18.1.1, SVG Export Plug-In . SVG Version: 6.00 Build 0)  -->
<svg version="1.1" xmlns="http://www.w3.org/2000/svg" xmlns:xlink="http://www.w3.org/1999/xlink" x="0px" y="0px"
	 viewBox="0 0 3160.9 3664.3" enable-background="new 0 0 3160.9 3664.3" xml:space="preserve">
<g id="Layer_1">
	<g>
		<defs>
			<rect id="SVGID_1_" y="-1" width="3160.9" height="3665.3"/>
		</defs>
		<clipPath id="SVGID_2_">
			<use xlink:href="#SVGID_1_"  overflow="visible"/>
		</clipPath>
		<g clip-path="url(#SVGID_2_)">
			<g id="polygon3_20_">
				<polygon fill="#706F70" points="1755.8,3480.4 1849.4,3112.3 1925.5,3207.7 				"/>
			</g>
			<g id="polygon7_24_">
				<polygon fill="#A5A0A5" points="1573.3,3182.5 1669.2,2932.2 1849.4,3112.3 				"/>
			</g>
			<g id="polygon23_24_">
				<polygon fill="#706F70" points="1573.3,3182.5 1849.4,3112.3 1755.8,3480.4 				"/>
			</g>
			<g id="polygon43_24_">
				<polygon fill="#706F70" points="1680.9,3520.9 1735,3209.5 1832,3575.8 				"/>
			</g>
			<g id="polygon49_28_">
				<polygon fill="#A5A0A5" points="1465.2,3805.3 1832,3575.8 1694.7,3438.5 				"/>
			</g>
			<g id="polygon51_26_">
				<polygon fill="#898989" points="1421.6,3781 1585.6,3925.7 1788.4,3551.4 				"/>
			</g>
			<g id="polygon11_30_">
				<polygon fill="#898989" points="1768.6,3850 2035.2,4196.8 1557.1,4167.7 				"/>
			</g>
			<g id="polygon15_32_">
				<polygon fill="#CCCACC" points="2825.4,2624.6 3267,2502.4 3217,3257.8 				"/>
			</g>
			<g id="polygon47_16_">
				<polygon fill="#A5A0A5" points="3110,3267.4 2928.4,2949.1 3034.4,2416.4 				"/>
			</g>
			<g id="polygon5_14_">
				<polygon fill="#706F70" points="2208.5,4050.1 1813.7,4136.1 2256.8,4156.1 				"/>
			</g>
			<g id="polygon9_22_">
				<polygon fill="#706F70" points="1643.7,3619.9 1547.7,3870.2 1778.8,3793.5 				"/>
			</g>
			<g id="polygon11_28_">
				<polygon fill="#A5A0A5" points="1778.8,3793.5 1813.7,4136.1 1547.7,3870.2 				"/>
			</g>
			<g id="polyline13_22_">
				<polyline fill="#CCCACC" points="2011.5,4006.9 1813.7,4136.1 1778.8,3793.5 				"/>
			</g>
			<g id="polygon15_30_">
				<polygon fill="#A5A0A5" points="1914.5,3640.7 2169.8,3934.4 1830.5,3999.1 				"/>
			</g>
			<g id="polygon17_22_">
				<polygon fill="#CCCACC" points="1830.5,3999.1 1711.2,3706.7 1914.5,3640.7 				"/>
			</g>
			<g id="polygon19_22_">
				<polygon fill="#706F70" points="1914.5,3640.7 1711.2,3706.7 1760.1,3486.3 				"/>
			</g>
			<g id="polygon21_22_">
				<polygon fill="#A5A0A5" points="2012.5,3988.7 1813.7,4136.1 2171.1,4070.4 				"/>
			</g>
			<g id="polygon27_22_">
				<polygon fill="#706F70" points="1830.5,3999.1 2207.4,4068.3 2179.4,3924.8 				"/>
			</g>
			<g id="polygon31_24_">
				<polygon fill="#A5A0A5" points="2201.2,3542.7 2084.2,4002.8 1884.6,3687.7 				"/>
			</g>
			<g id="polygon33_24_">
				<polygon fill="#CCCACC" points="1884.6,3687.7 2024.2,3308 2201.2,3542.7 				"/>
			</g>
			<g id="polygon35_24_">
				<polygon fill="#A5A0A5" points="2024.2,3308 1688.4,3472.3 1884.6,3687.7 				"/>
			</g>
			<g id="polygon37_24_">
				<polygon fill="#CCCACC" points="1688.4,3472.3 1522.3,3363.9 2024.2,3308 				"/>
			</g>
			<g id="polygon39_24_">
				<polygon fill="#A5A0A5" points="2024.2,3308 1751.8,2997.1 1522.3,3363.9 				"/>
			</g>
			<g id="polygon41_24_">
				<polygon fill="#CCCACC" points="2201.2,3542.7 2519.6,3841.9 2084.2,4002.8 				"/>
			</g>
			<g id="polyline45_14_">
				<polyline fill="#898989" points="2519.6,3841.9 2271.9,4209.7 2084.2,4002.8 				"/>
			</g>
			<g id="polygon51_22_">
				<polygon fill="#898989" points="1795.4,3021.4 1631.3,2876.7 1428.6,3250.9 				"/>
			</g>
			<g id="polygon3_13_">
				<polygon fill="#898989" points="1813.5,3250.8 2143.3,3711.7 1994.1,3718.6 				"/>
			</g>
			<g id="polygon7_20_">
				<polygon fill="#A5A0A5" points="2244.2,3298.8 2464.2,3787.1 2143.3,3711.7 				"/>
			</g>
			<g id="polygon9_20_">
				<polygon fill="#CCCACC" points="2244.2,3298.8 2464.2,3787.1 2513.5,3290.5 				"/>
			</g>
			<g id="polygon11_26_">
				<polygon fill="#706F70" points="2509,3336 3509.8,3385.8 2464.2,3787.1 				"/>
			</g>
			<g id="polyline13_20_">
				<polyline fill="#898989" points="2886.7,3196.5 2897.8,3566 2513.5,3290.5 				"/>
			</g>
			<g id="polygon15_28_">
				<polygon fill="#898989" points="2437.9,2977.2 2910.4,2929.7 2763.7,3417 				"/>
			</g>
			<g id="polygon17_20_">
				<polygon fill="#CCCACC" points="2763.7,3417 2378.8,3294.6 2437.9,2977.2 				"/>
			</g>
			<g id="polygon19_20_">
				<polygon fill="#A5A0A5" points="2437.9,2977.2 2378.8,3294.6 2176.8,3027.7 				"/>
			</g>
			<g id="polygon21_20_">
				<polygon fill="#898989" points="2868.1,3178.3 2897.8,3566 3300.5,2916.2 				"/>
			</g>
			<g id="polygon23_20_">
				<polygon fill="#CCCACC" points="2244.2,3298.8 2143.3,3711.7 1813.5,3250.8 				"/>
			</g>
			<g id="polygon25_20_">
				<polygon fill="#898989" points="2176.8,3027.7 2113.1,3477.1 2378.8,3294.6 				"/>
			</g>
			<g id="polygon27_20_">
				<polygon fill="#A5A0A5" points="2763.7,3417 3075.8,3007 2906.3,2908.6 				"/>
			</g>
			<g id="polygon29_20_">
				<polygon fill="#CCCACC" points="2113.1,3477.1 1830.3,3182 2176.8,3027.7 				"/>
			</g>
			<g id="polygon31_22_">
				<polygon fill="#A5A0A5" points="2724.3,2340 2928.4,3101 2468.7,3058.7 				"/>
			</g>
			<g id="polygon33_22_">
				<polygon fill="#CCCACC" points="2468.7,3058.7 2528.6,2144.3 2724.3,2340 				"/>
			</g>
			<g id="polygon35_22_">
				<polygon fill="#A5A0A5" points="2528.6,2144.3 2116.4,3104.9 2468.7,3058.7 				"/>
			</g>
			<g id="polygon37_22_">
				<polygon fill="#CCCACC" points="2116.4,3104.9 1896.5,3212.9 2528.6,2144.3 				"/>
			</g>
			<g id="polygon39_22_">
				<polygon fill="#898989" points="2528.6,2144.3 1654.2,2582.1 1896.5,3212.9 				"/>
			</g>
			<g id="polygon41_22_">
				<polygon fill="#898989" points="2724.3,2340 3034.4,2403 2928.4,3101 				"/>
			</g>
			<g id="polygon43_20_">
				<polygon fill="#898989" points="1818.1,3118.8 2113.1,3477.1 1664.3,3257.8 				"/>
			</g>
			<g id="polygon49_22_">
				<polygon fill="#A5A0A5" points="1654.2,2582.1 1664.3,3257.8 1896.5,3212.9 				"/>
			</g>
			<g id="polygon5_9_">
				<polygon fill="#4D4849" points="3104.9,3550.3 3217,4147.4 3217,3477.1 				"/>
			</g>
			<g id="polygon7_13_">
				<polygon fill="#706F70" points="2656.9,4097.3 2861.3,4147.4 2681.2,4327.5 				"/>
			</g>
			<g id="polygon9_13_">
				<polygon fill="#898989" points="2656.9,4097.3 2861.3,4147.4 2825.4,3957 				"/>
			</g>
			<g id="polygon11_17_">
				<polygon fill="#706F70" points="2825.4,3957 3217,4147.4 2861.3,4147.4 				"/>
			</g>
			<g id="polyline13_13_">
				<polyline fill="#898989" points="3041.3,3726.9 3217,4147.4 2825.4,3957 				"/>
			</g>
			<g id="polygon15_17_">
				<polygon fill="#898989" points="2710.8,3859.5 2999.4,3599.2 3010.6,3884.9 				"/>
			</g>
			<g id="polygon17_13_">
				<polygon fill="#A5A0A5" points="3010.6,3884.9 2741.1,4027.2 2710.8,3859.5 				"/>
			</g>
			<g id="polygon19_13_">
				<polygon fill="#CCCACC" points="2710.8,3859.5 2741.1,4027.2 2556.4,4013.9 				"/>
			</g>
			<g id="polygon21_13_">
				<polygon fill="#706F70" points="3025.7,3728.4 3217,4147.4 3117.5,3580.1 				"/>
			</g>
			<g id="polygon23_13_">
				<polygon fill="#898989" points="2656.9,4097.3 2681.2,4327.5 2374.3,4295 				"/>
			</g>
			<g id="polygon25_13_">
				<polygon fill="#A5A0A5" points="2556.4,4013.9 2612,4241.1 2741.1,4027.2 				"/>
			</g>
			<g id="polygon27_13_">
				<polygon fill="#A5A0A5" points="3010.6,3884.9 3120.5,3548.8 2992.3,3592.1 				"/>
			</g>
			<g id="polygon29_13_">
				<polygon fill="#CCCACC" points="2612,4241.1 2370.2,4256.7 2556.4,4013.9 				"/>
			</g>
			<g id="polygon31_13_">
				<polygon fill="#A5A0A5" points="2663.7,3623.8 3047.4,3664.3 2747.6,3879.2 				"/>
			</g>
			<g id="polygon33_13_">
				<polygon fill="#CCCACC" points="2747.6,3879.2 2436.6,3808.4 2663.7,3623.8 				"/>
			</g>
			<g id="polygon35_13_">
				<polygon fill="#A5A0A5" points="2436.6,3808.4 2534.7,4078 2747.6,3879.2 				"/>
			</g>
			<g id="polygon37_13_">
				<polygon fill="#CCCACC" points="2534.7,4078 2418.7,4236.5 2436.6,3808.4 				"/>
			</g>
			<g id="polygon39_13_">
				<polygon fill="#A5A0A5" points="2436.6,3787.1 2130.8,4085.9 2418.7,4236.5 				"/>
			</g>
			<g id="polygon41_13_">
				<polygon fill="#CCCACC" points="2663.7,3623.8 2965.4,3307.9 3047.4,3664.3 				"/>
			</g>
			<g id="polygon43_13_">
				<polygon fill="#A5A0A5" points="2349,4235.4 2612,4241.1 2281.4,4373.7 				"/>
			</g>
			<g id="polyline45_9_">
				<polyline fill="#A5A0A5" points="2965.4,3307.9 3509.8,3385.8 3047.4,3664.3 				"/>
			</g>
			<g id="polygon47_9_">
				<polygon fill="#706F70" points="2965.4,3307.9 3181.4,3077.8 3509.8,3385.8 				"/>
			</g>
			<g id="polygon49_13_">
				<polygon fill="#898989" points="2130.8,4085.9 2281.4,4373.7 2418.7,4236.5 				"/>
			</g>
			<g id="polygon51_13_">
				<polygon fill="#CCCACC" points="2157.7,4044.9 2010.4,4206.4 2308.3,4332.7 				"/>
			</g>
			<g id="polygon11_2_">
				<polygon fill="#898989" points="1448.3,1015.7 1181.7,669 1659.9,698 				"/>
			</g>
			<g id="polygon15_2_">
				<polygon fill="#CCCACC" points="391.6,2241.1 -50,2363.3 0,1608 				"/>
			</g>
			<g id="polygon47_1_">
				<polygon fill="#A5A0A5" points="107,1598.3 288.6,1916.7 182.6,2449.4 				"/>
			</g>
			<g id="polygon3_1_">
				<polygon fill="#706F70" points="1755.8,1543.7 1849.4,1175.7 1925.5,1271.1 				"/>
			</g>
			<g id="polygon5_1_">
				<polygon fill="#706F70" points="1008.5,815.7 1403.3,729.6 960.2,709.6 				"/>
			</g>
			<g id="polygon7_1_">
				<polygon fill="#A5A0A5" points="1573.3,1245.8 1669.2,995.5 1849.4,1175.7 				"/>
			</g>
			<g id="polygon9_1_">
				<polygon fill="#706F70" points="1573.3,1245.8 1669.2,995.5 1438.2,1072.2 				"/>
			</g>
			<g id="polygon11_1_">
				<polygon fill="#A5A0A5" points="1438.2,1072.2 1403.3,729.6 1669.2,995.5 				"/>
			</g>
			<g id="polyline13_1_">
				<polyline fill="#CCCACC" points="1205.5,858.8 1403.3,729.6 1438.2,1072.2 				"/>
			</g>
			<g id="polygon15_1_">
				<polygon fill="#A5A0A5" points="1302.5,1225 1047.2,931.3 1386.4,866.6 				"/>
			</g>
			<g id="polygon17_1_">
				<polygon fill="#CCCACC" points="1386.4,866.6 1505.7,1159 1302.5,1225 				"/>
			</g>
			<g id="polygon19_1_">
				<polygon fill="#706F70" points="1302.5,1225 1505.7,1159 1456.9,1379.4 				"/>
			</g>
			<g id="polygon21_1_">
				<polygon fill="#A5A0A5" points="1204.5,877 1403.3,729.6 1045.9,795.4 				"/>
			</g>
			<g id="polygon23_1_">
				<polygon fill="#706F70" points="1573.3,1245.8 1849.4,1175.7 1755.8,1543.7 				"/>
			</g>
			<g id="polygon25_1_">
				<polygon fill="#A5A0A5" points="1456.9,1379.4 1735,1272.9 1505.7,1159 				"/>
			</g>
			<g id="polygon27_1_">
				<polygon fill="#706F70" points="1386.4,866.6 1009.5,797.5 1037.6,940.9 				"/>
			</g>
			<g id="polygon29_1_">
				<polygon fill="#898989" points="1735,1272.9 1709.8,1555.4 1456.9,1379.4 				"/>
			</g>
			<g id="polygon31_1_">
				<polygon fill="#A5A0A5" points="1015.8,1323 1132.7,863 1332.4,1178 				"/>
			</g>
			<g id="polygon33_1_">
				<polygon fill="#CCCACC" points="1332.4,1178 1192.8,1557.8 1015.8,1323 				"/>
			</g>
			<g id="polygon35_1_">
				<polygon fill="#A5A0A5" points="1192.8,1557.8 1528.6,1393.5 1332.4,1178 				"/>
			</g>
			<g id="polygon37_1_">
				<polygon fill="#CCCACC" points="1528.6,1393.5 1694.7,1501.9 1192.8,1557.8 				"/>
			</g>
			<g id="polygon39_1_">
				<polygon fill="#A5A0A5" points="1192.8,1557.8 1465.2,1868.6 1694.7,1501.9 				"/>
			</g>
			<g id="polygon41_1_">
				<polygon fill="#CCCACC" points="1015.8,1323 697.4,1023.9 1132.7,863 				"/>
			</g>
			<g id="polygon43_1_">
				<polygon fill="#706F70" points="1680.9,1584.3 1735,1272.9 1832,1639.1 				"/>
			</g>
			<g id="polyline45_1_">
				<polyline fill="#898989" points="697.4,1023.9 945.1,656.1 1132.7,863 				"/>
			</g>
			<g id="polygon49_1_">
				<polygon fill="#A5A0A5" points="1465.2,1868.6 1832,1639.1 1694.7,1501.9 				"/>
			</g>
			<g id="polygon51_1_">
				<polygon fill="#898989" points="1421.6,1844.3 1585.6,1989.1 1788.4,1614.8 				"/>
			</g>
			<g id="polygon3_3_">
				<polygon fill="#898989" points="1403.5,1614.9 1073.7,1154 1222.8,1147.1 				"/>
			</g>
			<g id="polygon7_3_">
				<polygon fill="#A5A0A5" points="972.8,1567 752.8,1078.6 1073.7,1154 				"/>
			</g>
			<g id="polygon9_3_">
				<polygon fill="#CCCACC" points="972.8,1567 752.8,1078.6 703.5,1575.3 				"/>
			</g>
			<g id="polygon11_3_">
				<polygon fill="#706F70" points="708,1529.7 -292.8,1480 752.8,1078.6 				"/>
			</g>
			<g id="polyline13_3_">
				<polyline fill="#898989" points="330.3,1669.2 319.2,1299.8 703.5,1575.3 				"/>
			</g>
			<g id="polygon15_3_">
				<polygon fill="#898989" points="779,1888.5 306.6,1936.1 453.3,1448.7 				"/>
			</g>
			<g id="polygon17_3_">
				<polygon fill="#CCCACC" points="453.3,1448.7 838.2,1571.1 779,1888.5 				"/>
			</g>
			<g id="polygon19_3_">
				<polygon fill="#A5A0A5" points="779,1888.5 838.2,1571.1 1040.2,1838.1 				"/>
			</g>
			<g id="polygon21_3_">
				<polygon fill="#898989" points="348.9,1687.5 319.2,1299.8 -83.5,1949.5 				"/>
			</g>
			<g id="polygon23_3_">
				<polygon fill="#CCCACC" points="972.8,1567 1073.7,1154 1403.5,1614.9 				"/>
			</g>
			<g id="polygon25_3_">
				<polygon fill="#898989" points="1040.2,1838.1 1103.9,1388.6 838.2,1571.1 				"/>
			</g>
			<g id="polygon27_3_">
				<polygon fill="#A5A0A5" points="453.3,1448.7 141.2,1858.7 310.7,1957.1 				"/>
			</g>
			<g id="polygon29_3_">
				<polygon fill="#CCCACC" points="1103.9,1388.6 1386.7,1683.7 1040.2,1838.1 				"/>
			</g>
			<g id="polygon31_3_">
				<polygon fill="#A5A0A5" points="492.7,2525.7 288.6,1764.7 748.3,1807 				"/>
			</g>
			<g id="polygon33_3_">
				<polygon fill="#CCCACC" points="748.3,1807 688.4,2721.4 492.7,2525.7 				"/>
			</g>
			<g id="polygon35_3_">
				<polygon fill="#A5A0A5" points="688.4,2721.4 1100.6,1760.9 748.3,1807 				"/>
			</g>
			<g id="polygon37_3_">
				<polygon fill="#CCCACC" points="1100.6,1760.9 1320.5,1652.8 688.4,2721.4 				"/>
			</g>
			<g id="polygon39_3_">
				<polygon fill="#898989" points="688.4,2721.4 1562.7,2283.6 1320.5,1652.8 				"/>
			</g>
			<g id="polygon41_3_">
				<polygon fill="#898989" points="492.7,2525.7 182.6,2462.7 288.6,1764.7 				"/>
			</g>
			<g id="polygon43_3_">
				<polygon fill="#898989" points="1398.9,1747 1103.9,1388.6 1552.7,1608 				"/>
			</g>
			<g id="polygon49_3_">
				<polygon fill="#A5A0A5" points="1562.7,2283.6 1552.7,1608 1320.5,1652.8 				"/>
			</g>
			<g id="polygon51_3_">
				<polygon fill="#898989" points="1509.4,2315.8 1766.5,2244.2 1499.3,1640.1 				"/>
			</g>
			<g id="polygon3">
				<polygon fill="#CCCACC" points="842.7,570.7 535.8,538.2 628.6,459.5 				"/>
			</g>
			<g id="polygon5">
				<polygon fill="#4D4849" points="112.1,1315.5 0,718.4 0,1388.6 				"/>
			</g>
			<g id="polygon7">
				<polygon fill="#706F70" points="560.1,768.5 355.6,718.4 535.8,538.2 				"/>
			</g>
			<g id="polygon9">
				<polygon fill="#898989" points="560.1,768.5 355.6,718.4 391.6,908.7 				"/>
			</g>
			<g id="polygon11">
				<polygon fill="#706F70" points="391.6,908.7 0,718.4 355.6,718.4 				"/>
			</g>
			<g id="polyline13">
				<polyline fill="#898989" points="175.6,1138.8 0,718.4 391.6,908.7 				"/>
			</g>
			<g id="polygon15">
				<polygon fill="#898989" points="506.2,1006.2 217.6,1266.5 206.4,980.8 				"/>
			</g>
			<g id="polygon17">
				<polygon fill="#A5A0A5" points="206.4,980.8 475.9,838.6 506.2,1006.2 				"/>
			</g>
			<g id="polygon19">
				<polygon fill="#CCCACC" points="506.2,1006.2 475.9,838.6 660.6,851.8 				"/>
			</g>
			<g id="polygon21">
				<polygon fill="#706F70" points="191.3,1137.3 0,718.4 99.5,1285.7 				"/>
			</g>
			<g id="polygon23">
				<polygon fill="#898989" points="560.1,768.5 535.8,538.2 842.7,570.7 				"/>
			</g>
			<g id="polygon25">
				<polygon fill="#A5A0A5" points="660.6,851.8 605,624.6 475.9,838.6 				"/>
			</g>
			<g id="polygon27">
				<polygon fill="#A5A0A5" points="206.4,980.8 96.5,1317 224.7,1273.6 				"/>
			</g>
			<g id="polygon29">
				<polygon fill="#CCCACC" points="605,624.6 846.8,609.1 660.6,851.8 				"/>
			</g>
			<g id="polygon31">
				<polygon fill="#A5A0A5" points="553.3,1242 169.6,1201.4 469.4,986.5 				"/>
			</g>
			<g id="polygon33">
				<polygon fill="#CCCACC" points="469.4,986.5 780.4,1057.3 553.3,1242 				"/>
			</g>
			<g id="polygon35">
				<polygon fill="#A5A0A5" points="780.4,1057.3 682.3,787.7 469.4,986.5 				"/>
			</g>
			<g id="polygon37">
				<polygon fill="#CCCACC" points="682.3,787.7 798.3,629.2 780.4,1057.3 				"/>
			</g>
			<g id="polygon39">
				<polygon fill="#A5A0A5" points="780.4,1078.6 1086.2,779.8 798.3,629.2 				"/>
			</g>
			<g id="polygon41">
				<polygon fill="#CCCACC" points="553.3,1242 251.6,1557.8 169.6,1201.4 				"/>
			</g>
			<g id="polygon43">
				<polygon fill="#A5A0A5" points="868,630.3 605,624.6 935.6,492 				"/>
			</g>
			<g id="polyline45">
				<polyline fill="#A5A0A5" points="251.6,1557.8 -292.8,1480 169.6,1201.4 				"/>
			</g>
			<g id="polygon47">
				<polygon fill="#706F70" points="251.6,1557.8 35.6,1787.9 -292.8,1480 				"/>
			</g>
			<g id="polygon49">
				<polygon fill="#898989" points="1086.2,779.8 935.6,492 798.3,629.2 				"/>
			</g>
			<g id="polygon51">
				<polygon fill="#CCCACC" points="1059.3,820.8 1456.9,645.5 908.7,533 				"/>
			</g>
			<g id="polygon5_16_">
				<polygon fill="#706F70" points="1350.8,101.3 1901.5,15.3 1283.3,-4.7 				"/>
			</g>
			<g id="polygon15_35_">
				<polygon fill="#A5A0A5" points="1760.8,510.7 1404.8,217 1877.9,152.3 				"/>
			</g>
			<g id="polygon21_28_">
				<polygon fill="#A5A0A5" points="1624.1,162.7 1901.5,15.3 1403,81.1 				"/>
			</g>
			<g id="polygon27_25_">
				<polygon fill="#706F70" points="1877.9,152.3 1352.2,83.2 1391.4,226.6 				"/>
			</g>
			<g id="polygon31_27_">
				<polygon fill="#CCCACC" points="1226,453 1524.1,148.7 1802.5,463.7 				"/>
			</g>
			<g id="polygon41_27_">
				<polygon fill="#CCCACC" points="1082.7,791.2 638.6,492 1352.2,154.9 				"/>
			</g>
			<g id="polyline45_16_">
				<polyline fill="#898989" points="916.8,309.6 1262.3,-58.2 1524.1,148.7 				"/>
			</g>
			<g id="polygon3_18_">
				<polygon fill="#CCCACC" points="1119.5,-143.6 691.4,-176.1 820.9,-254.8 				"/>
			</g>
			<g id="polygon7_23_">
				<polygon fill="#706F70" points="725.4,54.1 440.1,4.1 691.4,-176.1 				"/>
			</g>
			<g id="polygon9_25_">
				<polygon fill="#898989" points="725.4,54.1 440.1,4.1 490.3,194.4 				"/>
			</g>
			<g id="polygon11_33_">
				<polygon fill="#706F70" points="522.9,202.3 -130.5,-7 469.6,-26 				"/>
			</g>
			<g id="polyline13_24_">
				<polyline fill="#898989" points="361.5,739 -55.9,4.1 490.3,194.4 				"/>
			</g>
			<g id="polygon17_25_">
				<polygon fill="#A5A0A5" points="231.9,266.5 607.8,124.3 387.2,789.7 				"/>
			</g>
			<g id="polygon19_25_">
				<polygon fill="#CCCACC" points="387.2,789.7 607.8,124.3 865.5,137.5 				"/>
			</g>
			<g id="polygon21_25_">
				<polygon fill="#706F70" points="383.3,737.4 -55.9,4.1 0,737.4 				"/>
			</g>
			<g id="polygon23_22_">
				<polygon fill="#898989" points="725.4,54.1 691.4,-176.1 1119.5,-143.6 				"/>
			</g>
			<g id="polygon25_23_">
				<polygon fill="#A5A0A5" points="865.5,137.5 787.9,-89.7 607.8,124.3 				"/>
			</g>
			<g id="polygon29_23_">
				<polygon fill="#CCCACC" points="787.9,-89.7 1125.2,-105.2 865.5,137.5 				"/>
			</g>
			<g id="polygon35_27_">
				<polygon fill="#A5A0A5" points="754.4,525.5 895.8,73.4 335.7,770 				"/>
			</g>
			<g id="polygon37_27_">
				<polygon fill="#CCCACC" points="895.8,73.4 1057.6,-85.1 754.4,525.5 				"/>
			</g>
			<g id="polygon39_27_">
				<polygon fill="#A5A0A5" points="721.3,542.6 1426,61.3 1024.5,-89.3 				"/>
			</g>
			<g id="polygon43_22_">
				<polygon fill="#A5A0A5" points="1154.8,-84 787.9,-89.7 1249.1,-222.3 				"/>
			</g>
			<g id="polygon49_25_">
				<polygon fill="#898989" points="1459.1,65.5 1249.1,-222.3 1057.6,-85.1 				"/>
			</g>
			<g id="polygon51_25_">
				<polygon fill="#CCCACC" points="1421.6,106.5 1627.1,-54.9 1211.6,-181.3 				"/>
			</g>
			<g id="polygon11_14_">
				<polygon fill="#898989" points="1448.3,2454.2 1181.7,2107.5 1659.9,2136.6 				"/>
			</g>
			<g id="polygon15_14_">
				<polygon fill="#CCCACC" points="391.6,3679.7 -50,3801.9 0,3046.5 				"/>
			</g>
			<g id="polygon47_6_">
				<polygon fill="#A5A0A5" points="107,3036.9 288.6,3355.2 182.6,3887.9 				"/>
			</g>
			<g id="polygon3_10_">
				<polygon fill="#706F70" points="1755.8,2982.3 1849.4,2614.2 1925.5,2709.6 				"/>
			</g>
			<g id="polygon5_6_">
				<polygon fill="#706F70" points="1008.5,2254.2 1403.3,2168.2 960.2,2148.2 				"/>
			</g>
			<g id="polygon7_10_">
				<polygon fill="#A5A0A5" points="1573.3,2684.4 1669.2,2434.1 1849.4,2614.2 				"/>
			</g>
			<g id="polygon9_10_">
				<polygon fill="#706F70" points="1573.3,2684.4 1669.2,2434.1 1438.2,2510.8 				"/>
			</g>
			<g id="polygon11_12_">
				<polygon fill="#A5A0A5" points="1438.2,2510.8 1403.3,2168.2 1669.2,2434.1 				"/>
			</g>
			<g id="polyline13_10_">
				<polyline fill="#CCCACC" points="1205.5,2297.4 1403.3,2168.2 1438.2,2510.8 				"/>
			</g>
			<g id="polygon15_12_">
				<polygon fill="#A5A0A5" points="1302.5,2663.6 1047.2,2369.9 1386.4,2305.2 				"/>
			</g>
			<g id="polygon17_10_">
				<polygon fill="#CCCACC" points="1386.4,2305.2 1505.7,2597.6 1302.5,2663.6 				"/>
			</g>
			<g id="polygon19_10_">
				<polygon fill="#706F70" points="1302.5,2663.6 1505.7,2597.6 1456.9,2818 				"/>
			</g>
			<g id="polygon21_10_">
				<polygon fill="#A5A0A5" points="1204.5,2315.5 1403.3,2168.2 1045.9,2233.9 				"/>
			</g>
			<g id="polygon23_10_">
				<polygon fill="#706F70" points="1573.3,2684.4 1849.4,2614.2 1755.8,2982.3 				"/>
			</g>
			<g id="polygon25_10_">
				<polygon fill="#A5A0A5" points="1456.9,2818 1735,2711.4 1505.7,2597.6 				"/>
			</g>
			<g id="polygon27_10_">
				<polygon fill="#706F70" points="1386.4,2305.2 1009.5,2236 1037.6,2379.5 				"/>
			</g>
			<g id="polygon29_10_">
				<polygon fill="#898989" points="1735,2711.4 1709.8,2994 1456.9,2818 				"/>
			</g>
			<g id="polygon31_10_">
				<polygon fill="#A5A0A5" points="1015.8,2761.6 1132.7,2301.5 1332.4,2616.5 				"/>
			</g>
			<g id="polygon33_10_">
				<polygon fill="#CCCACC" points="1332.4,2616.5 1192.8,2996.3 1015.8,2761.6 				"/>
			</g>
			<g id="polygon35_10_">
				<polygon fill="#A5A0A5" points="1192.8,2996.3 1528.6,2832 1332.4,2616.5 				"/>
			</g>
			<g id="polygon37_10_">
				<polygon fill="#CCCACC" points="1528.6,2832 1694.7,2940.4 1192.8,2996.3 				"/>
			</g>
			<g id="polygon39_10_">
				<polygon fill="#A5A0A5" points="1192.8,2996.3 1465.2,3307.2 1694.7,2940.4 				"/>
			</g>
			<g id="polygon41_10_">
				<polygon fill="#CCCACC" points="1015.8,2761.6 697.4,2462.4 1132.7,2301.5 				"/>
			</g>
			<g id="polygon43_10_">
				<polygon fill="#706F70" points="1680.9,3022.8 1735,2711.4 1832,3077.7 				"/>
			</g>
			<g id="polyline45_6_">
				<polyline fill="#898989" points="697.4,2462.4 945.1,2094.6 1132.7,2301.5 				"/>
			</g>
			<g id="polygon49_10_">
				<polygon fill="#A5A0A5" points="1465.2,3307.2 1832,3077.7 1694.7,2940.4 				"/>
			</g>
			<g id="polygon51_10_">
				<polygon fill="#898989" points="1421.6,3282.9 1585.6,3427.6 1788.4,3053.3 				"/>
			</g>
			<g id="polygon3_8_">
				<polygon fill="#898989" points="1403.5,3053.5 1073.7,2592.6 1222.8,2585.6 				"/>
			</g>
			<g id="polygon7_8_">
				<polygon fill="#A5A0A5" points="972.8,3005.5 752.8,2517.2 1073.7,2592.6 				"/>
			</g>
			<g id="polygon9_8_">
				<polygon fill="#CCCACC" points="972.8,3005.5 752.8,2517.2 703.5,3013.8 				"/>
			</g>
			<g id="polygon11_10_">
				<polygon fill="#706F70" points="708,2968.3 -292.8,2918.5 752.8,2517.2 				"/>
			</g>
			<g id="polyline13_8_">
				<polyline fill="#898989" points="330.3,3107.7 319.2,2738.3 703.5,3013.8 				"/>
			</g>
			<g id="polygon15_10_">
				<polygon fill="#898989" points="779,3327.1 306.6,3374.6 453.3,2887.3 				"/>
			</g>
			<g id="polygon17_8_">
				<polygon fill="#CCCACC" points="453.3,2887.3 838.2,3009.7 779,3327.1 				"/>
			</g>
			<g id="polygon19_8_">
				<polygon fill="#A5A0A5" points="779,3327.1 838.2,3009.7 1040.2,3276.6 				"/>
			</g>
			<g id="polygon21_8_">
				<polygon fill="#898989" points="348.9,3126 319.2,2738.3 -83.5,3388 				"/>
			</g>
			<g id="polygon23_8_">
				<polygon fill="#CCCACC" points="972.8,3005.5 1073.7,2592.6 1403.5,3053.5 				"/>
			</g>
			<g id="polygon25_8_">
				<polygon fill="#898989" points="1040.2,3276.6 1103.9,2827.2 838.2,3009.7 				"/>
			</g>
			<g id="polygon27_8_">
				<polygon fill="#A5A0A5" points="453.3,2887.3 141.2,3297.3 310.7,3395.7 				"/>
			</g>
			<g id="polygon29_8_">
				<polygon fill="#CCCACC" points="1103.9,2827.2 1386.7,3122.3 1040.2,3276.6 				"/>
			</g>
			<g id="polygon31_8_">
				<polygon fill="#A5A0A5" points="492.7,3964.2 288.6,3203.2 748.3,3245.6 				"/>
			</g>
			<g id="polygon33_8_">
				<polygon fill="#CCCACC" points="748.3,3245.6 688.4,4160 492.7,3964.2 				"/>
			</g>
			<g id="polygon35_8_">
				<polygon fill="#A5A0A5" points="688.4,4160 1100.6,3199.4 748.3,3245.6 				"/>
			</g>
			<g id="polygon37_8_">
				<polygon fill="#CCCACC" points="1100.6,3199.4 1320.5,3091.4 688.4,4160 				"/>
			</g>
			<g id="polygon39_8_">
				<polygon fill="#898989" points="688.4,4160 1562.7,3722.1 1320.5,3091.4 				"/>
			</g>
			<g id="polygon41_8_">
				<polygon fill="#898989" points="492.7,3964.2 182.6,3901.3 288.6,3203.2 				"/>
			</g>
			<g id="polygon43_8_">
				<polygon fill="#898989" points="1398.9,3185.5 1103.9,2827.2 1552.7,3046.5 				"/>
			</g>
			<g id="polygon49_8_">
				<polygon fill="#A5A0A5" points="1562.7,3722.1 1552.7,3046.5 1320.5,3091.4 				"/>
			</g>
			<g id="polygon51_8_">
				<polygon fill="#898989" points="1509.4,3754.3 1766.5,3682.8 1499.3,3078.7 				"/>
			</g>
			<g id="polygon3_2_">
				<polygon fill="#CCCACC" points="842.7,2009.3 535.8,1976.8 628.6,1898.1 				"/>
			</g>
			<g id="polygon5_2_">
				<polygon fill="#4D4849" points="112.1,2754 0,2156.9 0,2827.2 				"/>
			</g>
			<g id="polygon7_2_">
				<polygon fill="#706F70" points="560.1,2207 355.6,2156.9 535.8,1976.8 				"/>
			</g>
			<g id="polygon9_2_">
				<polygon fill="#898989" points="560.1,2207 355.6,2156.9 391.6,2347.3 				"/>
			</g>
			<g id="polygon11_7_">
				<polygon fill="#706F70" points="391.6,2347.3 0,2156.9 355.6,2156.9 				"/>
			</g>
			<g id="polyline13_2_">
				<polyline fill="#898989" points="175.6,2577.4 0,2156.9 391.6,2347.3 				"/>
			</g>
			<g id="polygon15_7_">
				<polygon fill="#898989" points="506.2,2444.7 217.6,2705.1 206.4,2419.4 				"/>
			</g>
			<g id="polygon17_2_">
				<polygon fill="#A5A0A5" points="206.4,2419.4 475.9,2277.1 506.2,2444.7 				"/>
			</g>
			<g id="polygon19_2_">
				<polygon fill="#CCCACC" points="506.2,2444.7 475.9,2277.1 660.6,2290.4 				"/>
			</g>
			<g id="polygon21_2_">
				<polygon fill="#706F70" points="191.3,2575.8 0,2156.9 99.5,2724.2 				"/>
			</g>
			<g id="polygon23_2_">
				<polygon fill="#898989" points="560.1,2207 535.8,1976.8 842.7,2009.3 				"/>
			</g>
			<g id="polygon25_2_">
				<polygon fill="#A5A0A5" points="660.6,2290.4 605,2063.2 475.9,2277.1 				"/>
			</g>
			<g id="polygon27_2_">
				<polygon fill="#A5A0A5" points="206.4,2419.4 96.5,2755.5 224.7,2712.2 				"/>
			</g>
			<g id="polygon29_2_">
				<polygon fill="#CCCACC" points="605,2063.2 846.8,2047.6 660.6,2290.4 				"/>
			</g>
			<g id="polygon31_2_">
				<polygon fill="#A5A0A5" points="553.3,2680.5 169.6,2639.9 469.4,2425 				"/>
			</g>
			<g id="polygon33_2_">
				<polygon fill="#CCCACC" points="469.4,2425 780.4,2495.9 553.3,2680.5 				"/>
			</g>
			<g id="polygon35_2_">
				<polygon fill="#A5A0A5" points="780.4,2495.9 682.3,2226.2 469.4,2425 				"/>
			</g>
			<g id="polygon37_2_">
				<polygon fill="#CCCACC" points="682.3,2226.2 798.3,2067.8 780.4,2495.9 				"/>
			</g>
			<g id="polygon39_2_">
				<polygon fill="#A5A0A5" points="780.4,2517.2 1086.2,2218.4 798.3,2067.8 				"/>
			</g>
			<g id="polygon41_2_">
				<polygon fill="#CCCACC" points="553.3,2680.5 251.6,2996.4 169.6,2639.9 				"/>
			</g>
			<g id="polygon43_2_">
				<polygon fill="#A5A0A5" points="868,2068.8 605,2063.2 935.6,1930.6 				"/>
			</g>
			<g id="polyline45_2_">
				<polyline fill="#A5A0A5" points="251.6,2996.4 -292.8,2918.5 169.6,2639.9 				"/>
			</g>
			<g id="polygon47_2_">
				<polygon fill="#706F70" points="251.6,2996.4 35.6,3226.5 -292.8,2918.5 				"/>
			</g>
			<g id="polygon49_2_">
				<polygon fill="#898989" points="1086.2,2218.4 935.6,1930.6 798.3,2067.8 				"/>
			</g>
			<g id="polygon51_2_">
				<polygon fill="#CCCACC" points="1059.3,2259.4 1206.6,2097.9 908.7,1971.6 				"/>
			</g>
			<g id="polygon15_24_">
				<polygon fill="#CCCACC" points="2825.4,2126.5 3267,2004.3 3217,2759.7 				"/>
			</g>
			<g id="polygon47_12_">
				<polygon fill="#A5A0A5" points="3110,2769.3 2928.4,2450.9 3034.4,1918.3 				"/>
			</g>
			<g id="polygon31_18_">
				<polygon fill="#A5A0A5" points="2724.3,1841.9 2928.4,2602.9 2468.7,2560.6 				"/>
			</g>
			<g id="polygon33_18_">
				<polygon fill="#CCCACC" points="2468.7,2560.6 2528.6,1646.2 2724.3,1841.9 				"/>
			</g>
			<g id="polygon35_18_">
				<polygon fill="#A5A0A5" points="2528.6,1646.2 2116.4,2606.8 2468.7,2560.6 				"/>
			</g>
			<g id="polygon37_18_">
				<polygon fill="#CCCACC" points="2116.4,2606.8 1896.5,2714.8 2528.6,1646.2 				"/>
			</g>
			<g id="polygon39_18_">
				<polygon fill="#898989" points="2528.6,1646.2 1654.2,2084 1896.5,2714.8 				"/>
			</g>
			<g id="polygon41_18_">
				<polygon fill="#898989" points="2724.3,1841.9 3034.4,1904.9 2928.4,2602.9 				"/>
			</g>
			<g id="polygon49_18_">
				<polygon fill="#A5A0A5" points="1654.2,2084 1664.3,2759.7 1896.5,2714.8 				"/>
			</g>
			<g id="polygon51_18_">
				<polygon fill="#898989" points="1707.6,2051.9 1450.5,2123.4 1717.7,2727.5 				"/>
			</g>
			<g id="polygon11_22_">
				<polygon fill="#898989" points="1768.6,1913.4 2035.2,2260.1 1557.1,2231.1 				"/>
			</g>
			<g id="polygon15_22_">
				<polygon fill="#CCCACC" points="2825.4,687.9 3267,565.7 3217,1321.1 				"/>
			</g>
			<g id="polygon47_10_">
				<polygon fill="#A5A0A5" points="3110,1330.7 2928.4,1012.4 3034.4,479.7 				"/>
			</g>
			<g id="polygon3_14_">
				<polygon fill="#706F70" points="1461.2,1385.4 1367.6,1753.4 1291.5,1658 				"/>
			</g>
			<g id="polygon5_10_">
				<polygon fill="#706F70" points="2208.5,2113.4 1813.7,2199.5 2256.8,2219.5 				"/>
			</g>
			<g id="polygon7_16_">
				<polygon fill="#A5A0A5" points="1643.7,1683.2 1547.7,1933.5 1367.6,1753.4 				"/>
			</g>
			<g id="polygon9_16_">
				<polygon fill="#706F70" points="1643.7,1683.2 1547.7,1933.5 1778.8,1856.9 				"/>
			</g>
			<g id="polygon11_20_">
				<polygon fill="#A5A0A5" points="1778.8,1856.9 1813.7,2199.5 1547.7,1933.5 				"/>
			</g>
			<g id="polyline13_16_">
				<polyline fill="#CCCACC" points="2011.5,2070.3 1813.7,2199.5 1778.8,1856.9 				"/>
			</g>
			<g id="polygon15_20_">
				<polygon fill="#A5A0A5" points="1914.5,1704 2169.8,1997.7 1830.5,2062.5 				"/>
			</g>
			<g id="polygon17_16_">
				<polygon fill="#CCCACC" points="1830.5,2062.5 1711.2,1770.1 1914.5,1704 				"/>
			</g>
			<g id="polygon19_16_">
				<polygon fill="#706F70" points="1914.5,1704 1711.2,1770.1 1760.1,1549.6 				"/>
			</g>
			<g id="polygon21_16_">
				<polygon fill="#A5A0A5" points="2012.5,2052.1 1813.7,2199.5 2171.1,2133.7 				"/>
			</g>
			<g id="polygon23_16_">
				<polygon fill="#706F70" points="1643.7,1683.2 1367.6,1753.4 1461.2,1385.4 				"/>
			</g>
			<g id="polygon25_16_">
				<polygon fill="#A5A0A5" points="1760.1,1549.6 1482,1656.2 1711.2,1770.1 				"/>
			</g>
			<g id="polygon27_16_">
				<polygon fill="#706F70" points="1830.5,2062.5 2207.4,2131.6 2179.4,1988.1 				"/>
			</g>
			<g id="polygon29_16_">
				<polygon fill="#898989" points="1482,1656.2 1507.2,1373.7 1760.1,1549.6 				"/>
			</g>
			<g id="polygon31_16_">
				<polygon fill="#A5A0A5" points="2201.2,1606 2084.2,2066.1 1884.6,1751.1 				"/>
			</g>
			<g id="polygon33_16_">
				<polygon fill="#CCCACC" points="1884.6,1751.1 2024.2,1371.3 2201.2,1606 				"/>
			</g>
			<g id="polygon35_16_">
				<polygon fill="#A5A0A5" points="2024.2,1371.3 1688.4,1535.6 1884.6,1751.1 				"/>
			</g>
			<g id="polygon37_16_">
				<polygon fill="#CCCACC" points="1688.4,1535.6 1522.3,1427.2 2024.2,1371.3 				"/>
			</g>
			<g id="polygon39_16_">
				<polygon fill="#A5A0A5" points="2024.2,1371.3 1751.8,1060.4 1522.3,1427.2 				"/>
			</g>
			<g id="polygon41_16_">
				<polygon fill="#CCCACC" points="2201.2,1606 2519.6,1905.2 2084.2,2066.1 				"/>
			</g>
			<g id="polygon43_16_">
				<polygon fill="#706F70" points="1536,1344.8 1482,1656.2 1385,1290 				"/>
			</g>
			<g id="polyline45_10_">
				<polyline fill="#898989" points="2519.6,1905.2 2271.9,2273 2084.2,2066.1 				"/>
			</g>
			<g id="polygon49_16_">
				<polygon fill="#A5A0A5" points="1751.8,1060.4 1385,1290 1522.3,1427.2 				"/>
			</g>
			<g id="polygon51_16_">
				<polygon fill="#898989" points="1795.4,1084.8 1631.3,940 1428.6,1314.3 				"/>
			</g>
			<g id="polygon3_12_">
				<polygon fill="#898989" points="1813.5,1314.2 2143.3,1775 1994.1,1782 				"/>
			</g>
			<g id="polygon7_14_">
				<polygon fill="#A5A0A5" points="2244.2,1362.1 2464.2,1850.4 2143.3,1775 				"/>
			</g>
			<g id="polygon9_14_">
				<polygon fill="#CCCACC" points="2244.2,1362.1 2464.2,1850.4 2513.5,1353.8 				"/>
			</g>
			<g id="polygon11_18_">
				<polygon fill="#706F70" points="2509,1399.3 3509.8,1449.1 2464.2,1850.4 				"/>
			</g>
			<g id="polyline13_14_">
				<polyline fill="#898989" points="2886.7,1259.9 2897.8,1629.3 2513.5,1353.8 				"/>
			</g>
			<g id="polygon15_18_">
				<polygon fill="#898989" points="2437.9,1040.5 2910.4,993 2763.7,1480.3 				"/>
			</g>
			<g id="polygon17_14_">
				<polygon fill="#CCCACC" points="2763.7,1480.3 2378.8,1358 2437.9,1040.5 				"/>
			</g>
			<g id="polygon19_14_">
				<polygon fill="#A5A0A5" points="2437.9,1040.5 2378.8,1358 2176.8,1091 				"/>
			</g>
			<g id="polygon21_14_">
				<polygon fill="#898989" points="2868.1,1241.6 2897.8,1629.3 3300.5,979.6 				"/>
			</g>
			<g id="polygon23_14_">
				<polygon fill="#CCCACC" points="2244.2,1362.1 2143.3,1775 1813.5,1314.2 				"/>
			</g>
			<g id="polygon25_14_">
				<polygon fill="#898989" points="2176.8,1091 2113.1,1540.4 2378.8,1358 				"/>
			</g>
			<g id="polygon27_14_">
				<polygon fill="#A5A0A5" points="2763.7,1480.3 3075.8,1070.3 2906.3,971.9 				"/>
			</g>
			<g id="polygon29_14_">
				<polygon fill="#CCCACC" points="2113.1,1540.4 1830.3,1245.3 2176.8,1091 				"/>
			</g>
			<g id="polygon31_14_">
				<polygon fill="#A5A0A5" points="2724.3,403.4 2928.4,1164.4 2468.7,1122 				"/>
			</g>
			<g id="polygon33_14_">
				<polygon fill="#CCCACC" points="2468.7,1122 2528.6,207.7 2724.3,403.4 				"/>
			</g>
			<g id="polygon35_14_">
				<polygon fill="#A5A0A5" points="2528.6,207.7 2116.4,1168.2 2468.7,1122 				"/>
			</g>
			<g id="polygon37_14_">
				<polygon fill="#CCCACC" points="2116.4,1168.2 1896.5,1276.3 2528.6,207.7 				"/>
			</g>
			<g id="polygon39_14_">
				<polygon fill="#898989" points="2528.6,207.7 1654.2,645.5 1896.5,1276.3 				"/>
			</g>
			<g id="polygon41_14_">
				<polygon fill="#898989" points="2724.3,403.4 3034.4,466.3 2928.4,1164.4 				"/>
			</g>
			<g id="polygon43_14_">
				<polygon fill="#898989" points="1818.1,1182.1 2113.1,1540.4 1664.3,1321.1 				"/>
			</g>
			<g id="polygon49_14_">
				<polygon fill="#A5A0A5" points="1654.2,645.5 1664.3,1321.1 1896.5,1276.3 				"/>
			</g>
			<g id="polygon51_14_">
				<polygon fill="#898989" points="1707.6,613.3 1450.5,684.8 1717.7,1288.9 				"/>
			</g>
			<g id="polygon5_8_">
				<polygon fill="#4D4849" points="3104.9,1613.6 3217,2210.7 3217,1540.4 				"/>
			</g>
			<g id="polygon7_12_">
				<polygon fill="#706F70" points="2656.9,2160.6 2861.3,2210.7 2681.2,2390.8 				"/>
			</g>
			<g id="polygon9_12_">
				<polygon fill="#898989" points="2656.9,2160.6 2861.3,2210.7 2825.4,2020.4 				"/>
			</g>
			<g id="polygon11_16_">
				<polygon fill="#706F70" points="2825.4,2020.4 3217,2210.7 2861.3,2210.7 				"/>
			</g>
			<g id="polyline13_12_">
				<polyline fill="#898989" points="3041.3,1790.3 3217,2210.7 2825.4,2020.4 				"/>
			</g>
			<g id="polygon15_16_">
				<polygon fill="#898989" points="2710.8,1922.9 2999.4,1662.5 3010.6,1948.3 				"/>
			</g>
			<g id="polygon17_12_">
				<polygon fill="#A5A0A5" points="3010.6,1948.3 2741.1,2090.5 2710.8,1922.9 				"/>
			</g>
			<g id="polygon19_12_">
				<polygon fill="#CCCACC" points="2710.8,1922.9 2741.1,2090.5 2556.4,2077.3 				"/>
			</g>
			<g id="polygon21_12_">
				<polygon fill="#706F70" points="3025.7,1791.8 3217,2210.7 3117.5,1643.4 				"/>
			</g>
			<g id="polygon23_12_">
				<polygon fill="#898989" points="2656.9,2160.6 2681.2,2390.8 2374.3,2358.4 				"/>
			</g>
			<g id="polygon25_12_">
				<polygon fill="#A5A0A5" points="2556.4,2077.3 2612,2304.5 2741.1,2090.5 				"/>
			</g>
			<g id="polygon27_12_">
				<polygon fill="#A5A0A5" points="3010.6,1948.3 3120.5,1612.1 2992.3,1655.5 				"/>
			</g>
			<g id="polygon29_12_">
				<polygon fill="#CCCACC" points="2612,2304.5 2370.2,2320 2556.4,2077.3 				"/>
			</g>
			<g id="polygon31_12_">
				<polygon fill="#A5A0A5" points="2663.7,1687.1 3047.4,1727.7 2747.6,1942.6 				"/>
			</g>
			<g id="polygon33_12_">
				<polygon fill="#CCCACC" points="2747.6,1942.6 2436.6,1871.7 2663.7,1687.1 				"/>
			</g>
			<g id="polygon35_12_">
				<polygon fill="#A5A0A5" points="2436.6,1871.7 2534.7,2141.4 2747.6,1942.6 				"/>
			</g>
			<g id="polygon37_12_">
				<polygon fill="#CCCACC" points="2534.7,2141.4 2418.7,2299.8 2436.6,1871.7 				"/>
			</g>
			<g id="polygon39_12_">
				<polygon fill="#A5A0A5" points="2436.6,1850.4 2130.8,2149.2 2418.7,2299.8 				"/>
			</g>
			<g id="polygon41_12_">
				<polygon fill="#CCCACC" points="2663.7,1687.1 2965.4,1371.2 3047.4,1727.7 				"/>
			</g>
			<g id="polygon43_12_">
				<polygon fill="#A5A0A5" points="2349,2298.8 2612,2304.5 2281.4,2437.1 				"/>
			</g>
			<g id="polyline45_8_">
				<polyline fill="#A5A0A5" points="2965.4,1371.2 3509.8,1449.1 3047.4,1727.7 				"/>
			</g>
			<g id="polygon47_8_">
				<polygon fill="#706F70" points="2965.4,1371.2 3181.4,1141.1 3509.8,1449.1 				"/>
			</g>
			<g id="polygon11_34_">
				<polygon fill="#898989" points="1448.3,377 1181.7,-1 1659.9,30.7 				"/>
			</g>
			<g id="polygon7_22_">
				<polygon fill="#A5A0A5" points="1573.3,627.8 1669.2,355 1849.4,551.3 				"/>
			</g>
			<g id="polygon9_24_">
				<polygon fill="#706F70" points="1573.3,627.8 1669.2,355 1438.2,438.6 				"/>
			</g>
			<g id="polygon11_32_">
				<polygon fill="#A5A0A5" points="1211.6,459.5 1317.5,44.1 1583.4,334 				"/>
			</g>
			<g id="polygon15_36_">
				<polygon fill="#CCCACC" points="2825.4,19.7 3267,-113.5 3217,709.9 				"/>
			</g>
			<g id="polygon47_20_">
				<polygon fill="#A5A0A5" points="3110,720.4 2928.4,373.4 3034.4,-207.3 				"/>
			</g>
			<g id="polygon39_28_">
				<polygon fill="#A5A0A5" points="2024.2,764.6 1751.8,425.7 1522.3,825.5 				"/>
			</g>
			<g id="polygon49_26_">
				<polygon fill="#A5A0A5" points="1751.8,425.7 1148.9,457 1522.3,825.5 				"/>
			</g>
			<g id="polygon49_27_">
				<polygon fill="#898989" points="1332.4,498.4 711.5,556.8 1309.2,615.2 				"/>
			</g>
			<g id="polygon51_28_">
				<polygon fill="#898989" points="1795.4,452.3 1631.3,294.4 1428.6,702.4 				"/>
			</g>
			<g id="polygon15_34_">
				<polygon fill="#898989" points="2437.9,404.1 2910.4,352.2 2763.7,883.5 				"/>
			</g>
			<g id="polygon17_24_">
				<polygon fill="#CCCACC" points="2763.7,883.5 2378.8,750.1 2437.9,404.1 				"/>
			</g>
			<g id="polygon19_24_">
				<polygon fill="#A5A0A5" points="2437.9,404.1 2378.8,750.1 2176.8,459 				"/>
			</g>
			<g id="polygon21_24_">
				<polygon fill="#898989" points="2868.1,623.2 2897.8,1045.8 3300.5,337.6 				"/>
			</g>
			<g id="polygon25_22_">
				<polygon fill="#898989" points="2176.8,459 2113.1,949 2378.8,750.1 				"/>
			</g>
			<g id="polygon27_24_">
				<polygon fill="#A5A0A5" points="2763.7,883.5 3075.8,436.5 2906.3,329.3 				"/>
			</g>
			<g id="polygon29_22_">
				<polygon fill="#CCCACC" points="2113.1,949 1830.3,627.3 2176.8,459 				"/>
			</g>
			<g id="polygon31_26_">
				<polygon fill="#A5A0A5" points="2724.3,-290.5 2928.4,539 2468.7,492.9 				"/>
			</g>
			<g id="polygon33_26_">
				<polygon fill="#CCCACC" points="2468.7,492.9 2528.6,-503.8 2724.3,-290.5 				"/>
			</g>
			<g id="polygon35_26_">
				<polygon fill="#A5A0A5" points="2528.6,-503.8 2116.4,543.2 2468.7,492.9 				"/>
			</g>
			<g id="polygon37_26_">
				<polygon fill="#CCCACC" points="2116.4,543.2 1896.5,661 2528.6,-503.8 				"/>
			</g>
			<g id="polygon39_26_">
				<polygon fill="#898989" points="2528.6,-503.8 1654.2,-26.6 1896.5,661 				"/>
			</g>
			<g id="polygon41_26_">
				<polygon fill="#898989" points="2724.3,-290.5 3034.4,-221.9 2928.4,539 				"/>
			</g>
			<g id="polygon49_24_">
				<polygon fill="#A5A0A5" points="1654.2,-26.6 1664.3,709.9 1896.5,661 				"/>
			</g>
			<g id="polygon51_24_">
				<polygon fill="#898989" points="1707.6,-61.6 1450.5,16.3 1717.7,674.8 				"/>
			</g>
			<g id="polygon47_18_">
				<polygon fill="#706F70" points="2965.4,764.5 3181.4,513.7 3509.8,849.4 				"/>
			</g>
			<g id="polygon49_12_">
				<polygon fill="#898989" points="2130.8,2149.2 2281.4,2437.1 2418.7,2299.8 				"/>
			</g>
			<g id="polygon51_12_">
				<polygon fill="#CCCACC" points="2157.7,2108.2 2010.4,2269.7 2308.3,2396.1 				"/>
			</g>
		</g>
	</g>
	<rect y="-1" opacity="0.8" fill="#5D5E5E" width="3160.9" height="3665.3"/>
</g>
<g id="Layer_2" display="none">
	<rect x="-580" y="804.5" display="inline" width="224" height="156.8"/>
	<rect x="-580" y="1007.6" display="inline" fill="#4D4849" width="224" height="156.8"/>
	<rect x="-580" y="1210.6" display="inline" fill="#706F70" width="224" height="156.8"/>
	<rect x="-580" y="1413.6" display="inline" fill="#898989" width="224" height="156.8"/>
	<rect x="-580" y="1616.7" display="inline" fill="#A5A0A5" width="224" height="156.8"/>
	<rect x="-580" y="1819.7" display="inline" fill="#CCCACC" width="224" height="156.8"/>
</g>
</svg>
